<svg width="500" height="500" viewBox="0 0 500 500" fill="none" xmlns="http://www.w3.org/2000/svg">
	<rect width="500" height="500" fill="#171717" rx="50" />
	<rect x="338" y="315" width="18" height="120" rx="5" fill="#06b6d4" />
	<rect x="338" y="203" width="18" height="47" rx="5" fill="#06b6d4" />
	<rect x="278" y="330.088" width="18" height="47" rx="5" transform="rotate(-120 278 330.088)" fill="#06b6d4" />
	<rect x="318.703" y="259.5" width="18" height="47" rx="5" transform="rotate(120 318.703 259.5)" fill="#06b6d4" />
	<rect width="18" height="47" rx="5" transform="matrix(0.5 -0.866025 -0.866025 -0.5 416 330.088)" fill="#06b6d4" />
	<rect width="18" height="47" rx="5" transform="matrix(0.5 0.866025 0.866025 -0.5 375.297 259.5)" fill="#06b6d4" />
	<ellipse cx="347" cy="282.5" rx="13" ry="12.5" fill="#06b6d4" />
	<path d="M96.3435 435C93.056 435 90.6768 434.444 89.2061 433.332 87.7354 432.097 87 430.244 87 427.773V210.412C87 205.471 90.1145 203 96.3435 203H104.519C109.623 203 112.868 205.038 114.252 209.115L157.855 317.147 163.824 337.901 169.794 319 213.527 209.115C214.997 205.038 218.198 203 223.13 203H230.786C236.929 203 240 205.471 240 210.412V427.773C240 432.591 236.929 435 230.786 435H229.229C225.941 435 223.562 434.444 222.092 433.332 220.621 432.097 219.885 430.244 219.885 427.773V250.438L219.496 251.92 173.557 365.882C172.952 367.364 172.26 368.476 171.481 369.217 170.702 369.835 169.707 370.144 168.496 370.144H159.282C156.947 370.144 155.216 368.723 154.092 365.882L107.115 248.585V427.773C107.115 432.591 104.043 435 97.9008 435H96.3435Z" fill="#06b6d4" />
	<path d="M448.399994 171.900009Q261.399994 56.700001 57 171M479 118Q273.200012-18.800001 21 118" stroke="#06b6d4" stroke-width="18" />
</svg>